<?xml version="1.0" standalone="no"?>
<!DOCTYPE svg PUBLIC "-//W3C//DTD SVG 20010904//EN"
 "http://www.w3.org/TR/2001/REC-SVG-20010904/DTD/svg10.dtd">
<svg version="1.0" xmlns="http://www.w3.org/2000/svg"
 width="100.000000pt" height="100.000000pt" viewBox="0 0 100.000000 100.000000"
 preserveAspectRatio="xMidYMid meet">

<g transform="translate(0.000000,100.000000) scale(0.100000,-0.100000)"
fill="#000000" stroke="none">
<path d="M211 714 l190 -256 -52 -56 c-29 -31 -115 -123 -192 -205 l-139 -147
39 0 c38 0 45 6 190 163 83 89 160 170 171 180 19 18 22 15 153 -162 l133
-181 142 0 143 0 -200 266 -199 266 127 137 c70 75 152 162 182 194 l55 57
-39 -1 c-39 -1 -46 -7 -195 -169 -85 -93 -158 -169 -161 -169 -3 -1 -63 76
-134 169 l-128 170 -138 0 -138 0 190 -256z m366 -200 l301 -405 -71 3 -72 3
-297 395 c-164 217 -298 398 -298 403 0 4 30 7 68 6 l67 0 302 -405z"/>
</g>
</svg>
